<svg width="331" height="410" viewBox="0 0 331 410" fill="none" xmlns="http://www.w3.org/2000/svg">
<path d="M213.232 90.817C215.765 90.9873 218.293 90.4114 220.502 89.1607C222.712 87.91 224.506 86.0394 225.662 83.7802C226.819 81.521 227.288 78.9724 227.01 76.4497C226.733 73.9269 225.722 71.5408 224.102 69.5865C231.189 66.3231 234.936 57.9421 234.416 50.173C233.897 42.4039 229.797 35.3394 224.677 29.3689C220.467 24.4923 215.18 20.0979 208.854 18.8927C207.657 18.7734 206.49 18.4472 205.404 17.9285C204.55 17.3279 203.809 16.5808 203.215 15.722C198.596 9.82563 192.901 4.41138 185.778 2.038C178.655 -0.335373 169.936 1.01819 165.169 6.82183C162.786 4.75392 159.831 3.458 156.695 3.10557C153.559 2.75313 150.39 3.36079 147.607 4.84813C144.824 6.33547 142.558 8.63239 141.11 11.4349C139.662 14.2375 139.099 17.4136 139.496 20.5429C134.477 21.2835 129.771 23.4306 125.923 26.7353C122.076 30.0399 119.243 34.3669 117.755 39.2147C115.103 48.9678 119.61 60.4267 128.607 65.0437C129.646 65.5814 130.889 66.286 130.852 67.4356C130.749 68.1295 130.439 68.776 129.961 69.2898C127.067 73.4247 128.514 79.4137 131.816 83.1592C135.118 86.9047 140.052 88.8887 144.801 90.78C143.745 91.8387 143.041 93.1973 142.785 94.6706C142.53 96.1439 142.735 97.6601 143.373 99.0126C144.749 101.72 146.891 103.964 149.531 105.465C159.845 112.122 172.608 110.045 184.164 110.286C194.831 110.509 205.423 103.704 212.49 95.9903C213.863 94.5254 214.957 91.8554 213.232 90.817Z" fill="white"/>
<path d="M171.384 111.343C173.239 111.343 175.094 111.343 176.8 111.343C179.212 111.343 181.734 111.232 184.109 111.343C193.792 111.51 204.514 106.077 213.158 96.7505C213.766 96.1407 214.244 95.4137 214.563 94.6137C214.882 93.8137 215.035 92.9573 215.013 92.0965C215.024 92.0289 215.024 91.9601 215.013 91.8925C217.511 91.7726 219.929 90.9785 222.011 89.5948C224.093 88.211 225.761 86.2893 226.838 84.0337C227.915 81.7782 228.36 79.2731 228.127 76.7848C227.894 74.2964 226.99 71.9178 225.512 69.9017C231.912 66.3787 235.9 58.4242 235.344 50.1174C234.88 43.0158 231.523 35.84 225.383 28.757C220.04 22.6011 214.698 19.0781 209.021 17.9841L208.391 17.8729C207.498 17.8378 206.629 17.5781 205.864 17.1178C205.099 16.6576 204.462 16.0116 204.013 15.2399C198.188 7.8231 192.345 3.26177 186.075 1.16652C178.34 -1.41082 169.862 0.387755 165.058 5.52389C162.529 3.57257 159.489 2.39548 156.306 2.13503C153.122 1.87458 149.931 2.54193 147.118 4.05634C144.306 5.57075 141.993 7.86731 140.459 10.6682C138.925 13.4691 138.237 16.6542 138.476 19.8383C133.464 20.7437 128.797 23.0067 124.983 26.3809C121.169 29.7551 118.354 34.1109 116.846 38.9736C114.027 49.3386 119.017 61.224 128.181 65.8781C129.108 66.3416 129.943 66.8608 129.924 67.4171C129.832 67.8018 129.648 68.1582 129.386 68.4554L129.219 68.6965C125.917 73.369 127.791 79.9144 131.223 83.6969C134.617 87.0273 138.711 89.5608 143.206 91.1137C142.394 92.3287 141.903 93.7296 141.78 95.1856C141.657 96.6416 141.905 98.105 142.501 99.4391C143.921 102.298 146.162 104.667 148.938 106.244C155.82 110.694 163.611 111.343 171.384 111.343ZM182.05 109.34C180.288 109.34 178.507 109.34 176.763 109.34C167.488 109.526 157.935 109.73 150.014 104.612C147.518 103.222 145.496 101.117 144.208 98.5676C143.632 97.3864 143.439 96.0554 143.655 94.7594C143.871 93.4635 144.486 92.267 145.414 91.3362C145.535 91.2331 145.628 91.1005 145.683 90.9511C145.738 90.8017 145.754 90.6406 145.729 90.4833C145.703 90.3237 145.636 90.1734 145.536 90.0468C145.435 89.9202 145.304 89.8215 145.154 89.7602C140.813 88.0172 135.879 86.0518 132.595 82.3434C129.646 79.0985 127.995 73.5359 130.74 69.6421L130.907 69.4381C131.413 68.8553 131.724 68.1294 131.798 67.3614C131.798 65.5072 130.036 64.6172 129.052 64.1166C120.631 59.7778 116.067 48.9122 118.664 39.3445C120.132 34.6946 122.88 30.5518 126.594 27.3906C130.307 24.2293 134.837 22.1775 139.663 21.47C139.903 21.4333 140.119 21.304 140.265 21.1098C140.41 20.9157 140.474 20.6722 140.442 20.4317C140.078 17.4943 140.61 14.5154 141.969 11.8856C143.327 9.25577 145.45 7.09776 148.057 5.69449C150.664 4.29122 153.635 3.70821 156.579 4.02188C159.523 4.33555 162.304 5.53126 164.557 7.45226C164.65 7.53421 164.759 7.59623 164.877 7.6345C164.995 7.67276 165.12 7.68647 165.243 7.67476C165.366 7.66561 165.485 7.63124 165.594 7.5738C165.702 7.51636 165.798 7.4371 165.874 7.341C170.048 2.2605 178.117 0.406296 185.463 2.87238C191.38 4.83783 196.945 9.21375 202.473 16.2412C203.128 17.1923 203.952 18.0156 204.903 18.6702C205.883 19.1913 206.953 19.5187 208.057 19.6343L208.65 19.7456C213.9 20.7654 218.909 24.0844 223.973 29.9066C229.835 36.6744 233.025 43.4979 233.47 50.173C234.008 58.1832 230.002 65.7854 223.695 68.715C223.566 68.7746 223.453 68.8622 223.363 68.9713C223.273 69.0804 223.209 69.2082 223.175 69.3454C223.145 69.4851 223.148 69.6297 223.184 69.7679C223.219 69.9062 223.286 70.0345 223.379 70.1427C224.909 71.9496 225.87 74.1684 226.14 76.5199C226.411 78.8714 225.98 81.2504 224.901 83.3575C223.823 85.4647 222.144 87.2057 220.078 88.3615C218.011 89.5173 215.649 90.0362 213.288 89.8529C213.077 89.8314 212.864 89.8845 212.688 90.003C212.512 90.1216 212.383 90.2981 212.323 90.5018C212.26 90.7009 212.266 90.9153 212.34 91.1105C212.414 91.3056 212.552 91.4701 212.731 91.5773C212.846 91.6408 212.943 91.7315 213.014 91.8415C213.086 91.9514 213.129 92.0772 213.14 92.2077C213.108 93.3911 212.615 94.5155 211.767 95.3413C203.568 104.279 193.217 109.507 184.146 109.322L182.05 109.34Z" fill="#181C1D"/>
<path d="M80.7482 362.365C76.5002 362.365 44.8354 365.795 30.0139 373.156C15.1925 380.517 11.9833 381.092 14.9884 391.031C17.9935 400.969 44.0934 403.417 63.9604 399.671C76.7563 397.042 89.0989 392.556 100.597 386.358L80.7482 362.365Z" fill="white"/>
<path d="M45.225 402.323C51.5638 402.298 57.8863 401.677 64.1089 400.468C76.9921 397.819 89.421 393.309 101.005 387.081C101.112 387.016 101.206 386.93 101.279 386.828C101.352 386.726 101.404 386.61 101.431 386.488C101.453 386.367 101.447 386.243 101.415 386.124C101.383 386.005 101.325 385.895 101.246 385.802L81.3974 361.808C81.3245 361.71 81.2294 361.63 81.1198 361.575C81.0102 361.521 80.8893 361.492 80.7668 361.493H80.5812C75.4058 361.493 44.483 365.016 29.643 372.377L26.304 374.028C14.4134 379.85 11.2043 381.444 14.1723 391.272C16.0458 397.502 28.2517 402.323 45.225 402.323ZM99.2796 386.098C88.1096 391.993 76.1631 396.281 63.7935 398.837C43.8523 402.545 18.5501 399.912 15.7861 390.789C13.2448 382.334 15.0812 381.426 27.0459 375.567L30.3849 373.916C44.5386 366.889 74.8122 363.31 80.3586 363.199L99.2796 386.098Z" fill="#181C1D"/>
<path d="M76.5 362.272C73.6992 362.958 71.2613 364.676 69.6753 367.084C68.0893 369.491 67.4724 372.408 67.9485 375.251C69.3397 385.802 91.6554 386.247 92.9353 386.376C94.2153 386.506 76.5 362.272 76.5 362.272Z" fill="white"/>
<path d="M92.9356 386.97C93.1013 386.965 93.263 386.918 93.4057 386.834C93.5484 386.749 93.6674 386.63 93.7518 386.488C94.0301 385.931 94.4753 385.078 77.1867 361.697C77.0875 361.561 76.9493 361.458 76.7903 361.401C76.6314 361.345 76.4591 361.338 76.2962 361.382C76.2035 361.382 65.63 364.033 67.0212 375.214C68.431 385.95 88.7619 386.896 92.8243 386.97H92.9356ZM76.2406 363.18C81.6757 370.597 89.7636 381.722 91.7855 385.245C86.7028 385.004 69.9892 383.577 68.8577 374.992C68.4219 372.48 68.9259 369.895 70.2738 367.731C71.6216 365.566 73.7191 363.973 76.1664 363.255L76.2406 363.18Z" fill="#181C1D"/>
<path d="M241.892 386.432C242.541 386.766 248.607 394.646 275.059 397.798C301.512 400.95 311.325 406.643 317.223 392.755C323.122 378.867 319.078 369.893 306.093 365.925C293.108 361.957 257.14 358.675 250.091 365.313C243.042 371.951 241.892 386.432 241.892 386.432Z" fill="white"/>
<path d="M304.165 402.508C310.713 402.508 314.924 400.32 318.003 393.089C321.082 385.857 321.546 379.646 319.301 374.843C317.224 370.393 312.846 367.111 306.316 365.127C294.11 361.419 257.029 357.599 249.498 364.701C242.282 371.487 241.132 385.765 241.076 386.358C241.067 386.515 241.101 386.671 241.172 386.812C241.244 386.952 241.352 387.07 241.484 387.155L241.744 387.378C249.368 394.312 264.004 397.335 274.985 398.633C280.68 399.319 285.577 400.116 289.825 400.821C294.557 401.736 299.35 402.3 304.165 402.508ZM269.921 362.346C282.628 362.346 298.024 364.367 305.778 366.74C311.863 368.595 315.907 371.561 317.762 375.566C319.802 379.905 319.357 385.579 316.445 392.421C312.085 402.712 305.649 401.692 290.141 399.152C285.8 398.447 280.866 397.65 275.152 396.964C264.43 395.684 250.128 392.755 242.838 386.117C243.098 383.688 244.693 371.691 250.685 365.98C253.356 363.347 260.98 362.346 269.921 362.346Z" fill="#181C1D"/>
<path d="M233.452 380.758C233.452 380.758 245.454 390.771 253.449 389.584C261.444 388.397 272.5 384.022 268.048 375.4C263.596 366.778 234.936 361.586 234.936 361.586L233.452 380.758Z" fill="white"/>
<path d="M252.076 390.53C252.579 390.53 253.081 390.493 253.579 390.419C259.57 389.529 266.805 386.97 269.123 382.427C269.696 381.263 269.967 379.974 269.912 378.678C269.857 377.383 269.477 376.121 268.808 375.01C264.208 366.073 236.271 360.974 235.084 360.751C234.967 360.731 234.848 360.736 234.733 360.765C234.618 360.793 234.51 360.846 234.416 360.918C234.322 360.993 234.244 361.085 234.187 361.19C234.13 361.295 234.094 361.411 234.083 361.53L232.599 380.684C232.588 380.819 232.61 380.955 232.661 381.081C232.713 381.206 232.793 381.318 232.895 381.407C233.378 381.797 243.933 390.53 252.076 390.53ZM235.696 362.606C240.612 363.57 263.521 368.446 267.231 375.789C267.779 376.661 268.096 377.657 268.155 378.685C268.213 379.713 268.01 380.738 267.565 381.667C265.525 385.616 258.847 387.915 253.263 388.75C246.455 389.77 236.234 381.945 234.268 380.387L235.696 362.606Z" fill="#181C1D"/>
<path d="M89.2811 296.652C89.2811 296.652 101.932 345.973 148.103 355.393C194.274 364.812 218.166 362.327 234.528 331.177C250.889 300.026 240.093 280.965 240.093 280.965L94.3823 278.073L89.2811 296.652Z" fill="#181C1D"/>
<path d="M186.186 361.159C208.446 361.159 223.898 353.409 235.362 331.603C251.76 300.36 241.317 281.299 240.927 280.502C240.846 280.362 240.73 280.245 240.59 280.164C240.45 280.082 240.291 280.039 240.13 280.038L94.4194 277.146C94.2092 277.135 94.0019 277.198 93.8327 277.323C93.6636 277.448 93.5431 277.628 93.4919 277.832L88.4462 296.374C88.4091 296.532 88.4091 296.697 88.4462 296.856C88.5761 297.356 101.765 346.919 147.992 356.283C162.591 359.305 175.223 361.159 186.186 361.159ZM239.48 281.874C240.927 284.933 248.236 303.067 233.711 330.75C217.109 362.272 192.901 363.607 148.381 354.484C104.919 345.621 91.3586 300.286 90.3383 296.652L95.1428 279.018L239.48 281.874Z" fill="#181C1D"/>
<path d="M250.963 297.097C250.963 297.097 274.837 219.962 271.702 171.623C268.567 123.284 250.592 121.56 226.069 118.834C215.18 117.61 157.174 109.025 135.452 134.576C113.73 160.127 75.4987 279.797 75.4987 279.797L250.963 297.097Z" fill="#0051CB"/>
<path d="M164.798 118.964L168.508 144.774C168.508 144.774 176.633 158.106 192.902 151.357C209.17 144.607 209.485 132.166 209.485 132.166L201.769 84.4757C201.769 84.4757 184.61 69.0858 177.394 39.6782C177.394 39.6782 163.018 64.747 142.149 70.3838C142.149 70.3838 143.54 91.2064 147.269 104.112C150.979 116.59 164.539 118.815 164.798 118.964Z" fill="white"/>
<path d="M184.183 154.175C187.338 154.137 190.454 153.469 193.347 152.21C210.042 145.312 210.487 132.722 210.505 132.184L202.733 84.3274C202.695 84.1153 202.591 83.9205 202.436 83.7711C202.269 83.6228 185.407 68.2329 178.321 39.4557C178.27 39.279 178.17 39.1205 178.032 38.999C177.894 38.8774 177.724 38.7979 177.542 38.7697C177.361 38.7441 177.176 38.7727 177.011 38.8519C176.846 38.931 176.708 39.0573 176.615 39.2147C176.466 39.4743 162.164 64.0239 141.963 69.4752C141.754 69.5308 141.571 69.6576 141.446 69.8336C141.321 70.0097 141.261 70.2239 141.277 70.4394C141.277 70.6434 142.724 91.5216 146.434 104.371C149.494 114.959 159.419 118.593 163.945 119.705L167.655 144.904C167.672 145.027 167.71 145.146 167.766 145.256C169.594 147.942 172.038 150.153 174.893 151.704C177.749 153.256 180.934 154.103 184.183 154.175ZM200.878 84.9207L208.558 132.314C208.558 132.611 208.001 144.07 192.53 150.504C178.08 156.493 170.27 145.831 169.38 144.44L165.67 118.834C165.653 118.693 165.602 118.559 165.521 118.443C165.44 118.327 165.332 118.232 165.206 118.166C165.035 118.067 164.846 118.004 164.65 117.981C160.662 117.035 151.053 113.753 148.196 103.852C144.931 92.56 143.447 74.908 143.169 71.0698C160.606 65.9522 173.257 47.9851 177.041 42.0331C184.09 68.1402 198.875 82.8811 200.878 84.9207Z" fill="#181C1D"/>
<path d="M191.77 85.1988C191.978 82.7865 192.968 80.508 194.589 78.7091C196.166 77.093 198.011 75.7629 200.043 74.7782C201.097 74.1268 202.281 73.7154 203.512 73.573C204.383 73.5815 205.244 73.7513 206.053 74.0736C208.028 74.7033 209.713 76.0188 210.802 77.782C211.519 79.2779 211.857 80.9272 211.785 82.5844C211.858 84.3778 211.696 86.1732 211.303 87.9245C210.867 89.6732 210.087 91.3173 209.007 92.7605C207.927 94.2036 206.57 95.4167 205.015 96.3286C203.46 97.2404 201.738 97.8328 199.951 98.0708C198.164 98.3088 196.347 98.1877 194.608 97.7147" fill="white"/>
<path d="M198.132 99.0312C201.361 99.0341 204.497 97.9594 207.044 95.9775C209.592 93.9956 211.404 91.22 212.193 88.0914C212.624 86.2702 212.798 84.3981 212.713 82.5288C212.778 80.7228 212.403 78.9282 211.618 77.2999C210.436 75.3615 208.601 73.9084 206.443 73.2022C205.52 72.8436 204.539 72.6551 203.549 72.6459C202.175 72.7906 200.85 73.2403 199.672 73.9624C197.551 74.9972 195.625 76.3897 193.977 78.0787C192.218 80.0323 191.143 82.5059 190.917 85.1247C190.901 85.3696 190.981 85.611 191.14 85.7979C191.3 85.9847 191.525 86.1024 191.77 86.1259C192.014 86.1369 192.253 86.055 192.439 85.8967C192.625 85.7384 192.744 85.5155 192.772 85.273C192.954 83.0668 193.845 80.9788 195.313 79.321C196.821 77.7904 198.585 76.5354 200.525 75.6126C201.451 75.0198 202.496 74.6398 203.586 74.5001C204.338 74.5064 205.081 74.6575 205.775 74.9451C207.527 75.4859 209.036 76.6202 210.042 78.1529C210.672 79.5225 210.964 81.023 210.895 82.5288C210.984 84.2419 210.828 85.9589 210.431 87.6278C210.023 89.251 209.296 90.7768 208.293 92.1167C207.29 93.4565 206.03 94.5836 204.587 95.4325C203.144 96.2813 201.546 96.835 199.887 97.0613C198.228 97.2875 196.541 97.1819 194.923 96.7505C194.687 96.6879 194.436 96.721 194.224 96.8425C194.012 96.964 193.857 97.1642 193.792 97.3995C193.761 97.5176 193.754 97.6405 193.771 97.7614C193.788 97.8822 193.829 97.9985 193.891 98.1036C193.953 98.2087 194.035 98.3004 194.133 98.3737C194.23 98.447 194.341 98.5003 194.46 98.5305C195.656 98.8609 196.891 99.0292 198.132 99.0312Z" fill="#181C1D"/>
<path d="M168.452 77.8376C168.452 77.8376 161.162 92.2077 163.555 94.2659C165.948 96.324 171.699 94.0619 171.699 94.0619" fill="white"/>
<path d="M166.541 96.0644C168.447 96.0057 170.329 95.6232 172.106 94.9334C172.22 94.8884 172.323 94.8216 172.411 94.7366C172.498 94.6517 172.568 94.5504 172.616 94.4384C172.664 94.3265 172.69 94.2061 172.692 94.0842C172.693 93.9624 172.671 93.8414 172.626 93.7281C172.531 93.5025 172.353 93.3223 172.128 93.2255C171.903 93.1287 171.649 93.1227 171.42 93.209C170.066 93.7281 165.855 94.9334 164.241 93.5613C163.258 92.7454 165.707 85.4399 169.343 78.2456C169.4 78.1377 169.434 78.0194 169.445 77.8978C169.455 77.7762 169.44 77.6538 169.402 77.5378C169.364 77.4219 169.303 77.3148 169.223 77.223C169.142 77.1311 169.044 77.0564 168.934 77.0033C168.715 76.8982 168.463 76.8819 168.231 76.9579C168 77.0339 167.806 77.1963 167.692 77.4112C165.41 81.9355 160.364 92.6898 163.017 94.9705C164.033 95.7252 165.276 96.1111 166.541 96.0644Z" fill="#181C1D"/>
<path d="M177.509 74.5896C177.369 72.8749 178.249 71.4039 179.474 71.3041C180.7 71.2043 181.806 72.5134 181.946 74.2281C182.086 75.9428 181.206 77.4138 179.981 77.5136C178.755 77.6135 177.649 76.3043 177.509 74.5896Z" fill="#181C1D"/>
<path d="M154.527 77.7636C154.399 76.048 155.289 74.5832 156.515 74.4919C157.741 74.4006 158.839 75.7174 158.967 77.4331C159.095 79.1487 158.204 80.6136 156.978 80.7048C155.752 80.7961 154.655 79.4793 154.527 77.7636Z" fill="#181C1D"/>
<path d="M170.345 107.56C173.181 107.61 175.988 106.974 178.525 105.706C182.959 103.389 185.797 98.957 186.965 92.5415C186.987 92.4209 186.984 92.2973 186.957 92.1778C186.93 92.0583 186.88 91.9453 186.809 91.8453C186.739 91.7453 186.649 91.6603 186.545 91.5952C186.441 91.5301 186.326 91.4862 186.205 91.466C185.964 91.4276 185.719 91.4832 185.518 91.6213C185.318 91.7594 185.178 91.9695 185.129 92.2077C184.09 98.0299 181.567 102.016 177.709 104.056C169.918 108.135 158.955 103.203 158.844 103.147C158.62 103.047 158.365 103.04 158.136 103.126C157.906 103.213 157.721 103.388 157.619 103.611C157.567 103.721 157.538 103.841 157.533 103.963C157.528 104.085 157.548 104.207 157.591 104.321C157.634 104.436 157.7 104.54 157.785 104.628C157.869 104.716 157.971 104.787 158.083 104.835C161.957 106.522 166.12 107.447 170.345 107.56Z" fill="#181C1D"/>
<path d="M164.798 118.964C164.798 118.964 181.493 120.336 190.1 113.55C190.1 113.55 182.773 136.727 167.376 136.653L164.798 118.964Z" fill="#181C1D"/>
<path d="M167.488 137.58C183.33 137.58 190.712 114.792 191.028 113.828C191.082 113.638 191.076 113.435 191.009 113.249C190.943 113.063 190.819 112.902 190.657 112.789C190.5 112.668 190.308 112.601 190.11 112.601C189.911 112.601 189.719 112.668 189.562 112.789C181.27 119.26 165.076 118.018 164.909 118C164.771 117.99 164.633 118.011 164.504 118.062C164.375 118.113 164.259 118.192 164.165 118.293C164.071 118.394 164 118.516 163.959 118.648C163.918 118.78 163.906 118.92 163.926 119.057L166.505 136.764C166.544 136.995 166.665 137.204 166.846 137.353C167.026 137.503 167.254 137.583 167.488 137.58ZM188.264 115.886C185.908 121.689 179.23 135.132 168.211 135.707L165.93 119.965C169.491 120.113 180.473 120.225 188.227 115.886H188.264Z" fill="#181C1D"/>
<path d="M244.452 123.136C278.714 118.871 310.879 264.259 292.181 278.073C263.02 299.637 174.017 270.192 174.017 270.192L182.921 231.829C182.921 231.829 247.16 234.888 248.329 221.705C249.497 208.522 212.434 146.721 217.628 137.71C222.822 128.698 244.452 123.136 244.452 123.136Z" fill="#0051CB"/>
<path d="M124.823 232.904C125.028 232.91 125.227 232.839 125.381 232.705C125.536 232.571 125.635 232.384 125.658 232.181C130.073 201.179 139.756 149.261 142.891 146.221C143.043 146.061 143.128 145.849 143.127 145.628C143.127 145.407 143.04 145.196 142.887 145.037C142.733 144.879 142.524 144.786 142.303 144.779C142.083 144.771 141.868 144.849 141.704 144.997C137.678 148.909 127.327 208.466 123.988 231.94C123.957 232.164 124.015 232.391 124.151 232.572C124.286 232.753 124.488 232.872 124.712 232.904H124.823Z" fill="#181C1D"/>
<path d="M157.6 306.256L216.738 289.698L108.128 269.284L49.3426 293.907L157.6 306.256Z" fill="white"/>
<path d="M157.601 307.239C157.68 307.257 157.762 307.257 157.842 307.239L216.979 290.551C217.225 290.551 217.461 290.454 217.635 290.28C217.809 290.106 217.907 289.87 217.907 289.624C217.907 289.378 217.809 289.143 217.635 288.969C217.461 288.795 217.225 288.697 216.979 288.697L108.369 268.301C108.2 268.246 108.018 268.246 107.85 268.301L49.0647 292.925C48.8766 293.004 48.7201 293.144 48.6195 293.322C48.5188 293.499 48.4797 293.705 48.5082 293.907C48.5358 294.112 48.6312 294.302 48.7791 294.446C48.927 294.591 49.1189 294.682 49.3244 294.705L157.489 307.239H157.601ZM212.657 289.939L157.527 305.385L52.9787 293.462L108.239 270.322L212.657 289.939Z" fill="#181C1D"/>
<path d="M192.493 245.086C179.508 246.514 167.469 247.441 155.393 252.503C148.493 255.4 141.976 259.137 135.99 263.628C132.94 265.792 130.09 268.224 127.475 270.897C125.398 273.159 126.066 275.366 129.553 274.272C133.608 273.002 137.448 271.126 140.943 268.709C132.587 275.523 125.182 283.424 118.924 292.202C118.219 293.203 117.533 294.631 118.367 295.521C119.202 296.411 121.057 295.521 122.077 294.594L140.423 277.201C135.567 281.389 131.436 286.351 128.199 291.886C127.735 292.684 127.29 293.741 127.772 294.464C128.588 295.817 130.666 294.798 131.779 293.666C137.274 288.12 142.271 282.102 146.712 275.681L136.806 290.514C136.9 290.788 137.047 291.04 137.239 291.257C137.431 291.473 137.664 291.649 137.924 291.775C138.185 291.901 138.467 291.974 138.756 291.99C139.045 292.006 139.334 291.964 139.607 291.868C140.698 291.418 141.642 290.673 142.334 289.717L154.336 275.94L147.25 285.693C146.137 287.214 145.024 289.402 146.304 290.83C147.584 292.257 150.477 290.83 152.11 289.383C158.676 283.394 165.887 278.152 173.609 273.752C176.41 272.102 178.803 269.859 181.901 268.913C186.353 267.541 191.918 267.726 196.556 267.207" fill="white"/>
<path d="M119.258 296.782C120.497 296.642 121.65 296.078 122.522 295.187L128.458 289.624C128.069 290.236 127.679 290.867 127.327 291.479C126.951 291.962 126.713 292.537 126.638 293.144C126.563 293.751 126.654 294.367 126.9 294.927C127.066 295.213 127.297 295.456 127.574 295.636C127.851 295.816 128.167 295.929 128.495 295.966C129.197 295.957 129.889 295.802 130.528 295.512C131.166 295.221 131.738 294.801 132.205 294.278C133.43 293.055 134.617 291.812 135.786 290.57C135.777 290.638 135.777 290.706 135.786 290.774C135.856 291.117 135.998 291.442 136.203 291.726C136.407 292.01 136.67 292.248 136.973 292.424C137.373 292.664 137.819 292.818 138.281 292.879C138.744 292.939 139.214 292.905 139.663 292.776C140.911 292.287 141.992 291.451 142.779 290.366L144.968 287.863C144.695 288.467 144.599 289.136 144.691 289.792C144.782 290.449 145.059 291.065 145.487 291.571C145.754 291.87 146.08 292.111 146.443 292.28C146.807 292.449 147.201 292.542 147.602 292.554C149.539 292.343 151.333 291.433 152.648 289.995C159.149 284.038 166.306 278.838 173.98 274.494C174.926 273.938 175.835 273.307 176.725 272.64C178.346 271.376 180.155 270.375 182.086 269.673C185.321 268.855 188.638 268.407 191.974 268.338C193.569 268.245 195.127 268.153 196.593 268.004C196.816 267.977 197.019 267.861 197.158 267.684C197.297 267.507 197.361 267.282 197.335 267.059C197.323 266.949 197.29 266.842 197.237 266.746C197.184 266.649 197.112 266.563 197.026 266.494C196.94 266.425 196.84 266.374 196.734 266.344C196.628 266.313 196.517 266.304 196.407 266.317C194.96 266.465 193.439 266.558 191.881 266.651C188.407 266.717 184.952 267.184 181.586 268.041C179.495 268.806 177.531 269.881 175.761 271.231C174.908 271.843 174.036 272.436 173.127 272.974C165.347 277.392 158.086 282.666 151.479 288.697C150.476 289.717 149.178 290.398 147.769 290.644C147.596 290.638 147.427 290.597 147.271 290.524C147.115 290.45 146.975 290.346 146.86 290.218C145.858 289.124 147.231 286.991 147.862 286.12L154.948 276.385C155.014 276.3 155.063 276.203 155.091 276.099C155.12 275.995 155.127 275.886 155.113 275.78C155.1 275.673 155.065 275.57 155.011 275.476C154.957 275.383 154.885 275.301 154.799 275.236C154.643 275.083 154.434 274.997 154.215 274.997C153.997 274.997 153.787 275.083 153.631 275.236L141.61 289.012C141.024 289.833 140.221 290.475 139.292 290.867C139.072 290.928 138.842 290.945 138.616 290.916C138.39 290.888 138.172 290.814 137.975 290.7C137.856 290.638 137.754 290.549 137.678 290.44L147.342 275.922C147.468 275.737 147.515 275.511 147.473 275.292C147.431 275.073 147.304 274.879 147.12 274.754C146.935 274.628 146.708 274.581 146.489 274.623C146.27 274.665 146.076 274.792 145.951 274.976C141.53 281.352 136.565 287.332 131.111 292.851C130.507 293.513 129.683 293.935 128.792 294.037C128.719 294.035 128.647 294.014 128.585 293.974C128.523 293.935 128.473 293.88 128.44 293.815C128.236 293.5 128.44 292.906 128.866 292.09C131.099 288.27 133.77 284.724 136.824 281.521L140.961 277.591C141.095 277.432 141.166 277.229 141.161 277.021C141.156 276.814 141.076 276.615 140.934 276.462C140.793 276.31 140.601 276.214 140.394 276.193C140.187 276.172 139.98 276.227 139.811 276.348C138.346 277.609 136.954 278.926 135.619 280.316L121.446 293.759C120.896 294.385 120.139 294.793 119.313 294.909C119.238 294.912 119.163 294.896 119.096 294.864C119.028 294.832 118.969 294.784 118.924 294.723C118.497 294.278 118.924 293.277 119.536 292.461C125.748 283.748 133.097 275.903 141.388 269.135C141.54 268.991 141.633 268.796 141.65 268.587C141.668 268.379 141.607 268.171 141.481 268.004C141.355 267.837 141.172 267.722 140.967 267.681C140.761 267.64 140.548 267.676 140.367 267.782C136.957 270.155 133.204 271.993 129.237 273.233C127.939 273.641 127.253 273.474 127.123 273.233C126.993 272.992 127.123 272.176 128.032 271.212C130.606 268.572 133.419 266.176 136.435 264.055C142.362 259.61 148.817 255.917 155.653 253.059C166.542 248.517 177.43 247.349 189.043 246.106L192.66 245.698C192.77 245.687 192.876 245.654 192.973 245.601C193.07 245.548 193.156 245.476 193.225 245.39C193.294 245.303 193.345 245.204 193.375 245.098C193.406 244.992 193.415 244.881 193.402 244.771C193.39 244.661 193.357 244.555 193.304 244.458C193.251 244.361 193.179 244.276 193.093 244.207C193.007 244.138 192.908 244.087 192.802 244.056C192.695 244.026 192.584 244.017 192.474 244.03L188.764 244.419C177.096 245.68 166.096 246.866 154.985 251.502C148.02 254.386 141.44 258.123 135.396 262.627C132.295 264.832 129.402 267.314 126.752 270.044C125.416 271.49 125.008 273.066 125.676 274.123C126.065 274.717 127.104 275.607 129.72 274.791C131.229 274.33 132.71 273.778 134.153 273.14C128.222 278.688 122.86 284.812 118.145 291.423C116.865 293.277 116.698 294.779 117.644 295.817C117.846 296.04 118.092 296.22 118.367 296.344C118.641 296.468 118.938 296.535 119.239 296.54L119.258 296.782Z" fill="#181C1D"/>
<path d="M49.3433 293.907L22.2789 221.501L132.818 223.689L157.601 306.256L49.3433 293.907Z" fill="white"/>
<path d="M157.601 307.239C157.736 307.241 157.87 307.211 157.992 307.154C158.114 307.096 158.221 307.011 158.306 306.905C158.403 306.789 158.471 306.65 158.503 306.502C158.535 306.353 158.531 306.199 158.491 306.052L133.708 223.485C133.648 223.298 133.533 223.134 133.377 223.015C133.221 222.896 133.033 222.827 132.837 222.817L22.2971 220.63C22.1456 220.627 21.9957 220.661 21.8601 220.729C21.7245 220.797 21.6072 220.896 21.518 221.019C21.4372 221.144 21.3853 221.285 21.3661 221.433C21.3468 221.58 21.3607 221.73 21.4067 221.872L48.4712 294.186C48.5318 294.35 48.6366 294.494 48.7742 294.602C48.9117 294.71 49.0765 294.777 49.2503 294.797L157.49 307.239H157.601ZM132.113 224.653L156.228 305.237L49.9366 293.11L23.5585 222.502L132.113 224.653Z" fill="#181C1D"/>
<path d="M55.2422 294.575C55.2422 294.575 25.2468 318.921 35.7832 341.245C46.3196 363.57 237.978 389.084 237.978 389.084L246.604 359.898C246.604 359.898 96.2563 283.135 55.2422 294.575Z" fill="#181C1D"/>
<path d="M237.978 390.011C238.178 390.008 238.372 389.942 238.532 389.822C238.692 389.702 238.809 389.534 238.868 389.343L247.494 360.158C247.56 359.953 247.549 359.731 247.464 359.533C247.379 359.336 247.225 359.175 247.03 359.083C246.659 358.879 208.947 339.688 166.69 322.11C109.834 298.469 72.2706 288.901 55.0562 293.685C54.9267 293.721 54.8064 293.784 54.7037 293.87C49.4695 298.316 44.8197 303.406 40.8655 309.019C32.5922 320.923 30.5887 332.197 35.0778 341.653C45.7997 364.163 230.02 388.954 237.848 389.992L237.978 390.011ZM245.509 360.343L237.31 388.008C223.917 386.154 46.7087 361.716 36.7474 340.819C26.953 320.2 53.4423 297.264 55.7425 295.391C94.7346 284.989 234.268 354.781 245.398 360.381L245.509 360.343Z" fill="#181C1D"/>
<path d="M256.528 283.394C256.528 283.394 107.702 343.544 70.8057 359.416L92.2495 392.532C92.2495 392.532 229.668 389.844 269.068 355.337C308.468 320.83 305.853 263.387 256.528 283.394Z" fill="#181C1D"/>
<path d="M92.2491 393.497C92.583 393.497 127.105 392.773 165.985 387.841C218.296 381.185 253.17 370.505 269.661 356.06C290.289 338 304.739 306.294 293.387 287.881C289.677 281.762 279.771 272.955 256.138 282.523C254.654 283.135 106.885 342.877 70.3972 358.545C70.2729 358.595 70.1616 358.673 70.0717 358.773C69.9818 358.872 69.9155 358.991 69.8778 359.12C69.8406 359.25 69.8312 359.387 69.8504 359.521C69.8696 359.655 69.9169 359.784 69.9891 359.898L91.4329 393.07C91.52 393.206 91.6412 393.317 91.7843 393.392C91.9275 393.467 92.0877 393.503 92.2491 393.497ZM274.8 280.168C282.424 280.168 288.267 283.098 291.829 288.846C300.584 303.067 293.294 332.92 268.456 354.67C230.966 387.508 102.006 391.401 92.75 391.624L72.1595 359.824C110.261 343.507 255.378 284.84 256.862 284.247C262.527 281.76 268.615 280.376 274.8 280.168Z" fill="#181C1D"/>
<path d="M48.7682 265.001C48.6082 265.856 48.2386 266.659 47.6923 267.337L44.7985 271.657C44.9042 271.211 45.1066 270.793 45.3915 270.433C45.6764 270.074 46.0367 269.781 46.4472 269.576C46.8576 269.371 47.3081 269.258 47.7669 269.246C48.2256 269.234 48.6814 269.323 49.1021 269.506C49.9239 269.951 50.6067 270.614 51.0748 271.422C51.543 272.23 51.7783 273.152 51.7547 274.086C51.6716 275.951 51.2308 277.783 50.4562 279.482C48.3972 284.822 43.7411 292.628 37.0075 288.586C32.4442 285.842 31.1828 276.163 30.5335 271.342C29.2536 261.848 32.1659 249.648 44.3718 251.502C44.0198 256.177 42.2753 260.639 39.3633 264.314C41.3482 262.386 49.3803 259.401 48.7682 265.001Z" fill="white"/>
<path d="M40.7356 290.551C41.4814 290.557 42.2222 290.431 42.9246 290.181C47.3209 288.679 50.0663 283.023 51.3091 279.779C52.1185 277.978 52.5781 276.04 52.6633 274.068C52.6936 272.971 52.4115 271.889 51.8499 270.947C51.2883 270.004 50.4703 269.241 49.4913 268.746C49.0369 268.539 48.5436 268.432 48.0444 268.431L48.4525 267.819C49.0858 267.022 49.507 266.078 49.6768 265.075C49.8244 264.338 49.7222 263.574 49.3862 262.902C49.0502 262.231 48.4997 261.69 47.8218 261.366C45.9196 260.779 43.8659 260.932 42.0712 261.793C43.8534 258.68 44.9181 255.208 45.1877 251.632C45.1999 251.418 45.1328 251.207 44.9994 251.04C44.8659 250.872 44.6754 250.759 44.4642 250.723C42.6078 250.317 40.6804 250.368 38.8482 250.872C37.0159 251.376 35.3337 252.318 33.9463 253.616C29.5871 257.918 28.8636 265.668 29.6613 271.509C30.3847 276.849 31.6832 286.435 36.5434 289.365C37.8007 290.148 39.2542 290.559 40.7356 290.551ZM47.9331 270.155C48.232 270.151 48.5286 270.208 48.8049 270.322C49.48 270.7 50.0379 271.256 50.4175 271.93C50.7971 272.604 50.9837 273.369 50.9567 274.142C50.8836 275.899 50.4677 277.625 49.7324 279.222C48.8049 281.596 46.245 287.288 42.3124 288.623C41.501 288.882 40.6408 288.952 39.7982 288.827C38.9556 288.701 38.153 288.384 37.4523 287.9C33.2785 285.397 32.0171 275.977 31.405 271.453C30.6444 265.891 31.2566 258.659 35.115 254.765C36.21 253.735 37.5272 252.97 38.9649 252.53C40.4027 252.089 41.9224 251.985 43.4069 252.225C42.9295 256.445 41.2778 260.447 38.6395 263.777C38.5039 263.943 38.4379 264.156 38.4552 264.37C38.4724 264.584 38.5717 264.784 38.7322 264.926C38.8905 265.075 39.0994 265.158 39.3166 265.158C39.5337 265.158 39.7427 265.075 39.9009 264.926C41.1438 263.703 45.2433 261.96 47.0797 262.85C47.4878 263.035 48.0073 263.462 47.8774 264.908C47.7154 265.623 47.3988 266.294 46.9499 266.873L45.3917 269.173C44.9832 269.437 44.6384 269.789 44.3818 270.202C44.1253 270.616 43.9634 271.081 43.9077 271.564C43.8879 271.754 43.932 271.944 44.0328 272.105C44.1336 272.266 44.2854 272.389 44.4642 272.454C44.6417 272.518 44.8355 272.52 45.014 272.459C45.1925 272.398 45.3453 272.279 45.4474 272.121L46.5975 270.415C47.0125 270.214 47.4729 270.124 47.9331 270.155Z" fill="#181C1D"/>
<path d="M90.5612 352.556C90.678 352.574 90.7968 352.574 90.9136 352.556C94.1599 351.295 170.883 321.609 188.171 311.022C188.386 310.888 188.54 310.674 188.599 310.428C188.658 310.182 188.618 309.922 188.487 309.705C188.422 309.597 188.336 309.503 188.235 309.428C188.133 309.353 188.017 309.3 187.895 309.27C187.772 309.241 187.644 309.236 187.52 309.257C187.395 309.278 187.276 309.323 187.17 309.39C170.029 319.885 91.0249 350.461 90.2273 350.757C89.989 350.849 89.7966 351.031 89.6923 351.263C89.5879 351.496 89.5802 351.761 89.6708 352C89.7476 352.17 89.8732 352.313 90.0317 352.412C90.1901 352.511 90.3744 352.561 90.5612 352.556Z" fill="white"/>
<path d="M180.046 231.477C163.132 231.477 149.42 218.501 149.42 202.495C149.42 186.49 163.132 173.514 180.046 173.514C196.961 173.514 210.672 186.49 210.672 202.495C210.672 218.501 196.961 231.477 180.046 231.477Z" fill="#181C1D"/>
<path d="M180.047 232.385C197.446 232.385 211.582 218.979 211.582 202.495C211.582 186.012 197.428 172.587 180.047 172.587C162.665 172.587 148.512 186.012 148.512 202.495C148.512 218.979 162.647 232.385 180.047 232.385ZM180.047 174.441C196.426 174.441 209.727 187.031 209.727 202.495C209.727 217.96 196.408 230.531 180.047 230.531C163.685 230.531 150.367 217.96 150.367 202.495C150.367 187.031 163.667 174.441 180.047 174.441Z" fill="#181C1D"/>
<path d="M196.204 211.915L203.624 207.576V201.847L196.204 197.508C193.73 196.086 191.257 194.64 188.784 193.169V200.104C190.101 200.919 191.418 201.717 192.735 202.477C194.052 203.237 195.35 204.016 196.686 204.85L192.735 207.038L188.784 209.245V216.254L196.204 211.915Z" fill="white"/>
<path d="M186.687 218.089L177.95 184.862L173.387 186.92L182.161 220.092L186.687 218.089Z" fill="white"/>
<path d="M163.778 197.508L156.358 201.847V207.576L163.778 211.915L171.198 216.254V209.245L167.247 207.038L163.295 204.85C164.613 204.016 165.93 203.219 167.247 202.477C168.564 201.735 169.862 200.919 171.198 200.104V193.169L163.778 197.508Z" fill="white"/>
<path d="M243.543 283.135C243.789 283.149 244.031 283.066 244.215 282.902C244.399 282.739 244.511 282.509 244.526 282.263C244.541 282.017 244.457 281.776 244.294 281.591C244.13 281.407 243.9 281.295 243.654 281.28L199.134 275.885L192.067 240.266L249.108 235.445C249.244 235.435 249.377 235.396 249.495 235.328C249.614 235.261 249.716 235.168 249.794 235.055C249.877 234.946 249.934 234.818 249.96 234.683C249.986 234.548 249.98 234.409 249.943 234.276L226.495 147.018C226.431 146.772 226.272 146.562 226.053 146.433C225.834 146.304 225.573 146.268 225.327 146.332C225.081 146.396 224.87 146.555 224.741 146.774C224.613 146.993 224.576 147.254 224.64 147.5L247.809 233.702L190.916 238.411C190.786 238.425 190.66 238.466 190.545 238.529C190.43 238.593 190.33 238.679 190.249 238.782C190.171 238.888 190.116 239.008 190.087 239.135C190.059 239.263 190.057 239.395 190.082 239.524L197.502 276.812C197.542 277.003 197.64 277.176 197.783 277.309C197.926 277.442 198.106 277.527 198.299 277.553L243.543 283.023V283.135Z" fill="#181C1D"/>
</svg>
