<svg width="331" height="410" fill="none" xmlns="http://www.w3.org/2000/svg"><path d="M213.232 90.817a12.989 12.989 0 0012.43-7.037 12.973 12.973 0 00-1.56-14.194c7.087-3.263 10.834-11.644 10.314-19.413-.519-7.77-4.619-14.834-9.739-20.804-4.21-4.877-9.497-9.271-15.823-10.476a10.396 10.396 0 01-3.45-.965 8.857 8.857 0 01-2.189-2.206c-4.619-5.896-10.314-11.31-17.437-13.684-7.123-2.373-15.842-1.02-20.609 4.784a15.585 15.585 0 00-24.059 4.613 15.573 15.573 0 00-1.614 9.108 26.833 26.833 0 00-21.741 18.672c-2.652 9.753 1.855 21.212 10.852 25.829 1.039.537 2.282 1.242 2.245 2.392a3.469 3.469 0 01-.891 1.854c-2.894 4.135-1.447 10.124 1.855 13.87 3.302 3.745 8.236 5.729 12.985 7.62a7.27 7.27 0 00-1.428 8.233 15.504 15.504 0 006.158 6.452c10.314 6.657 23.077 4.58 34.633 4.821 10.667.223 21.259-6.582 28.326-14.296 1.373-1.465 2.467-4.135.742-5.173z" fill="#fff"/><path d="M171.384 111.343h5.416c2.412 0 4.934-.111 7.309 0 9.683.167 20.405-5.266 29.049-14.593a6.366 6.366 0 001.855-4.653.635.635 0 000-.204 13.841 13.841 0 0011.825-7.86 13.83 13.83 0 00-1.326-14.131c6.4-3.523 10.388-11.478 9.832-19.785-.464-7.101-3.821-14.277-9.961-21.36-5.343-6.156-10.685-9.679-16.362-10.773l-.63-.111a5.305 5.305 0 01-4.378-2.633c-5.825-7.417-11.668-11.978-17.938-14.073-7.735-2.578-16.213-.78-21.017 4.357a16.535 16.535 0 00-24.599 5.144 16.515 16.515 0 00-1.983 9.17 27.83 27.83 0 00-21.63 19.136c-2.819 10.365 2.171 22.25 11.335 26.904.927.464 1.762.983 1.743 1.54a2.42 2.42 0 01-.538 1.037l-.167.242c-3.302 4.672-1.428 11.217 2.004 15a32.054 32.054 0 0011.983 7.417 8.637 8.637 0 00-.705 8.325 16.024 16.024 0 006.437 6.805c6.882 4.45 14.673 5.099 22.446 5.099zm10.666-2.003h-5.287c-9.275.186-18.828.39-26.749-4.728a14.298 14.298 0 01-5.806-6.044 6.318 6.318 0 011.206-7.232.927.927 0 00.122-1.29.946.946 0 00-.382-.286c-4.341-1.743-9.275-3.708-12.559-7.417-2.949-3.245-4.6-8.807-1.855-12.7l.167-.205a3.71 3.71 0 00.891-2.077c0-1.854-1.762-2.744-2.746-3.244-8.421-4.34-12.985-15.205-10.388-24.773a25.972 25.972 0 0120.999-17.874.929.929 0 00.779-1.038 14.682 14.682 0 017.615-14.738 14.697 14.697 0 0116.5 1.758.908.908 0 00.686.223.894.894 0 00.631-.334c4.174-5.08 12.243-6.935 19.589-4.469 5.917 1.966 11.482 6.342 17.01 13.37a9.47 9.47 0 002.43 2.428 8.63 8.63 0 003.154.964l.593.112c5.25 1.02 10.259 4.338 15.323 10.16 5.862 6.768 9.052 13.592 9.497 20.267.538 8.01-3.468 15.612-9.775 18.542a.942.942 0 00-.52.63.923.923 0 00.204.797 11.99 11.99 0 01-3.301 18.219 12.007 12.007 0 01-6.79 1.492.91.91 0 00-.965.649.928.928 0 00.408 1.075.792.792 0 01.409.63 4.546 4.546 0 01-1.373 3.134c-8.199 8.938-18.55 14.166-27.621 13.981l-2.096.018z" fill="#181C1D"/><path d="M80.748 362.365c-4.248 0-35.913 3.43-50.734 10.791-14.821 7.361-18.03 7.936-15.026 17.875 3.006 9.938 29.105 12.386 48.972 8.64a134.082 134.082 0 0036.637-13.313l-19.849-23.993z" fill="#fff"/><path d="M45.225 402.323a101.102 101.102 0 0018.884-1.855 135.582 135.582 0 0036.896-13.387.932.932 0 00.426-.593.829.829 0 00-.185-.686l-19.849-23.994a.785.785 0 00-.63-.315h-.186c-5.175 0-36.098 3.523-50.938 10.884l-3.339 1.651c-11.89 5.822-15.1 7.416-12.132 17.244 1.874 6.23 14.08 11.051 31.053 11.051zm54.055-16.225a134.22 134.22 0 01-35.486 12.739c-19.942 3.708-45.244 1.075-48.008-8.048-2.541-8.455-.705-9.363 11.26-15.222l3.339-1.651c14.154-7.027 44.427-10.606 49.974-10.717l18.92 22.899z" fill="#181C1D"/><path d="M76.5 362.272a11.425 11.425 0 00-8.552 12.979c1.392 10.551 23.707 10.996 24.987 11.125 1.28.13-16.435-24.104-16.435-24.104z" fill="#fff"/><path d="M92.936 386.97a.986.986 0 00.816-.482c.278-.557.723-1.41-16.565-24.791a.833.833 0 00-.89-.315c-.094 0-10.667 2.651-9.276 13.832 1.41 10.736 21.74 11.682 25.803 11.756h.112zM76.24 363.18c5.435 7.417 13.523 18.542 15.544 22.065-5.082-.241-21.796-1.668-22.927-10.253a10.379 10.379 0 017.308-11.737l.075-.075z" fill="#181C1D"/><path d="M241.892 386.432c.649.334 6.715 8.214 33.167 11.366 26.453 3.152 36.266 8.845 42.164-5.043 5.899-13.888 1.855-22.862-11.13-26.83-12.985-3.968-48.953-7.25-56.002-.612-7.049 6.638-8.199 21.119-8.199 21.119z" fill="#fff"/><path d="M304.165 402.508c6.548 0 10.759-2.188 13.838-9.419 3.079-7.232 3.543-13.443 1.298-18.246-2.077-4.45-6.455-7.732-12.985-9.716-12.206-3.708-49.287-7.528-56.818-.426-7.216 6.786-8.366 21.064-8.422 21.657a.895.895 0 00.408.797l.26.223c7.624 6.934 22.26 9.957 33.241 11.255 5.695.686 10.592 1.483 14.84 2.188a97.757 97.757 0 0014.34 1.687zm-34.244-40.162c12.707 0 28.103 2.021 35.857 4.394 6.085 1.855 10.129 4.821 11.984 8.826 2.04 4.339 1.595 10.013-1.317 16.855-4.36 10.291-10.796 9.271-26.304 6.731-4.341-.705-9.275-1.502-14.989-2.188-10.722-1.28-25.024-4.209-32.314-10.847.26-2.429 1.855-14.426 7.847-20.137 2.671-2.633 10.295-3.634 19.236-3.634z" fill="#181C1D"/><path d="M233.452 380.758s12.002 10.013 19.997 8.826c7.995-1.187 19.051-5.562 14.599-14.184-4.452-8.622-33.112-13.814-33.112-13.814l-1.484 19.172z" fill="#fff"/><path d="M252.076 390.53c.503 0 1.005-.037 1.503-.111 5.991-.89 13.226-3.449 15.544-7.992a7.744 7.744 0 00-.315-7.417c-4.6-8.937-32.537-14.036-33.724-14.259a.856.856 0 00-1.001.779l-1.484 19.154a.87.87 0 00.296.723c.483.39 11.038 9.123 19.181 9.123zm-16.38-27.924c4.916.964 27.825 5.84 31.535 13.183a6.097 6.097 0 01.334 5.878c-2.04 3.949-8.718 6.248-14.302 7.083-6.808 1.02-17.029-6.805-18.995-8.363l1.428-17.781zM89.281 296.652s12.651 49.321 58.822 58.741c46.171 9.419 70.063 6.934 86.425-24.216 16.361-31.151 5.565-50.212 5.565-50.212l-145.71-2.892-5.102 18.579z" fill="#181C1D"/><path d="M186.186 361.159c22.26 0 37.712-7.75 49.176-29.556 16.398-31.243 5.955-50.304 5.565-51.101a.926.926 0 00-.797-.464l-145.71-2.892a.908.908 0 00-.928.686l-5.046 18.542a1.058 1.058 0 000 .482c.13.5 13.319 50.063 59.546 59.427 14.599 3.022 27.231 4.876 38.194 4.876zm53.294-79.285c1.447 3.059 8.756 21.193-5.769 48.876-16.602 31.522-40.81 32.857-85.33 23.734-43.462-8.863-57.022-54.198-58.043-57.832l4.805-17.634 144.337 2.856z" fill="#181C1D"/><path d="M250.963 297.097s23.874-77.135 20.739-125.474c-3.135-48.339-21.11-50.063-45.633-52.789-10.889-1.224-68.895-9.809-90.617 15.742-21.722 25.551-59.953 145.221-59.953 145.221l175.464 17.3z" fill="#0051CB"/><path d="M164.798 118.964l3.71 25.81s8.125 13.332 24.394 6.583c16.268-6.75 16.583-19.191 16.583-19.191l-7.716-47.69s-17.159-15.39-24.375-44.798c0 0-14.376 25.069-35.245 30.706 0 0 1.391 20.822 5.12 33.728 3.71 12.478 17.27 14.703 17.529 14.852z" fill="#fff"/><path d="M184.183 154.175a23.68 23.68 0 009.164-1.965c16.695-6.898 17.14-19.488 17.158-20.026l-7.772-47.857a1.024 1.024 0 00-.297-.556c-.167-.148-17.029-15.538-24.115-44.315a.964.964 0 00-.779-.686.928.928 0 00-.927.445c-.149.26-14.451 24.809-34.652 30.26a.926.926 0 00-.686.964c0 .204 1.447 21.083 5.157 33.932 3.06 10.588 12.985 14.222 17.511 15.334l3.71 25.199c.017.123.055.242.111.352a20.403 20.403 0 0016.417 8.919zm16.695-69.254l7.68 47.393c0 .297-.557 11.756-16.028 18.19-14.45 5.989-22.26-4.673-23.15-6.064l-3.71-25.606a.862.862 0 00-.464-.668 1.446 1.446 0 00-.556-.185c-3.988-.946-13.597-4.228-16.454-14.129-3.265-11.292-4.749-28.944-5.027-32.782 17.437-5.118 30.088-23.085 33.872-29.037 7.049 26.107 21.834 40.848 23.837 42.888z" fill="#181C1D"/><path d="M191.77 85.199a11.122 11.122 0 012.819-6.49 19.504 19.504 0 015.454-3.93 8.443 8.443 0 013.469-1.206 7.05 7.05 0 012.541.5 8.681 8.681 0 014.749 3.709 10.097 10.097 0 01.983 4.802 20.569 20.569 0 01-.482 5.34 13.536 13.536 0 01-11.352 10.147 13.546 13.546 0 01-5.343-.356" fill="#fff"/><path d="M198.132 99.031a14.49 14.49 0 0014.061-10.94c.431-1.82.605-3.693.52-5.562.065-1.806-.31-3.6-1.095-5.23a9.534 9.534 0 00-5.175-4.097 8.204 8.204 0 00-2.894-.556 9.279 9.279 0 00-3.877 1.316 20.54 20.54 0 00-5.695 4.117 12.084 12.084 0 00-3.06 7.046.944.944 0 00.853 1 .965.965 0 001.002-.852 10.248 10.248 0 012.541-5.952 18.43 18.43 0 015.212-3.708 7.428 7.428 0 013.061-1.113 5.845 5.845 0 012.189.445 7.886 7.886 0 014.267 3.208c.63 1.37.922 2.87.853 4.376a17.998 17.998 0 01-.464 5.099 12.628 12.628 0 01-15.508 9.123.927.927 0 00-1.131.648.92.92 0 00.341.975.915.915 0 00.327.157 13.89 13.89 0 003.672.5z" fill="#181C1D"/><path d="M168.452 77.838s-7.29 14.37-4.897 16.428c2.393 2.058 8.144-.204 8.144-.204" fill="#fff"/><path d="M166.541 96.064a16.809 16.809 0 005.565-1.13.93.93 0 00.586-.85.943.943 0 00-.066-.356.946.946 0 00-1.206-.519c-1.354.52-5.565 1.724-7.179.352-.983-.816 1.466-8.121 5.102-15.315a.916.916 0 00-.409-1.242.945.945 0 00-1.242.407c-2.282 4.525-7.328 15.279-4.675 17.56a5.565 5.565 0 003.524 1.093zm10.968-21.474c-.14-1.715.74-3.186 1.965-3.286 1.226-.1 2.332 1.21 2.472 2.924.14 1.715-.74 3.186-1.965 3.286-1.226.1-2.332-1.21-2.472-2.924zm-22.982 3.174c-.128-1.716.762-3.18 1.988-3.272 1.226-.091 2.324 1.225 2.452 2.941.128 1.716-.763 3.18-1.989 3.272-1.226.091-2.323-1.226-2.451-2.941zm15.818 29.796c2.836.05 5.643-.586 8.18-1.854 4.434-2.317 7.272-6.749 8.44-13.165a.91.91 0 00-.156-.696.914.914 0 00-.604-.379.948.948 0 00-1.076.742c-1.039 5.822-3.562 9.808-7.42 11.848-7.791 4.079-18.754-.853-18.865-.909a.932.932 0 00-1.225.464.911.911 0 00.464 1.224 32.916 32.916 0 0012.262 2.725zm-5.547 11.404s16.695 1.372 25.302-5.414c0 0-7.327 23.177-22.724 23.103l-2.578-17.689z" fill="#181C1D"/><path d="M167.488 137.58c15.842 0 23.224-22.788 23.54-23.752a.947.947 0 00-.371-1.039.897.897 0 00-1.095 0c-8.292 6.471-24.486 5.229-24.653 5.211a.92.92 0 00-.744.293.926.926 0 00-.239.764l2.579 17.707a.983.983 0 00.983.816zm20.776-21.694c-2.356 5.803-9.034 19.246-20.053 19.821l-2.281-15.742c3.561.148 14.543.26 22.297-4.079h.037z" fill="#181C1D"/><path d="M244.452 123.136c34.262-4.265 66.427 141.123 47.729 154.937-29.161 21.564-118.164-7.881-118.164-7.881l8.904-38.363s64.239 3.059 65.408-10.124c1.168-13.183-35.895-74.984-30.701-83.995 5.194-9.012 26.824-14.574 26.824-14.574z" fill="#0051CB"/><path d="M124.823 232.904a.813.813 0 00.835-.723c4.415-31.002 14.098-82.92 17.233-85.96a.855.855 0 00-.004-1.184.853.853 0 00-1.183-.04c-4.026 3.912-14.377 63.469-17.716 86.943a.856.856 0 00.724.964h.111z" fill="#181C1D"/><path d="M157.6 306.256l59.138-16.558-108.61-20.414-58.785 24.623L157.6 306.256z" fill="#fff"/><path d="M157.601 307.239a.545.545 0 00.241 0l59.137-16.688a.927.927 0 100-1.854l-108.61-20.396a.837.837 0 00-.519 0l-58.785 24.624a.922.922 0 00-.557.982.925.925 0 00.816.798l108.165 12.534h.112zm55.056-17.3l-55.13 15.446-104.548-11.923 55.26-23.14 104.418 19.617z" fill="#181C1D"/><path d="M192.493 245.086c-12.985 1.428-25.024 2.355-37.1 7.417a91.094 91.094 0 00-19.403 11.125 62.527 62.527 0 00-8.515 7.269c-2.077 2.262-1.409 4.469 2.078 3.375a42.2 42.2 0 0011.39-5.563 120.792 120.792 0 00-22.019 23.493c-.705 1.001-1.391 2.429-.557 3.319.835.89 2.69 0 3.71-.927l18.346-17.393a58.176 58.176 0 00-12.224 14.685c-.464.798-.909 1.855-.427 2.578.816 1.353 2.894.334 4.007-.798a133.227 133.227 0 0014.933-17.985l-9.906 14.833a2.196 2.196 0 001.118 1.261 2.19 2.19 0 001.683.093 6.361 6.361 0 002.727-2.151l12.002-13.777-7.086 9.753c-1.113 1.521-2.226 3.709-.946 5.137 1.28 1.427 4.173 0 5.806-1.447a120.221 120.221 0 0121.499-15.631c2.801-1.65 5.194-3.893 8.292-4.839 4.452-1.372 10.017-1.187 14.655-1.706" fill="#fff"/><path d="M119.258 296.782a5.42 5.42 0 003.264-1.595l5.936-5.563a49.809 49.809 0 00-1.131 1.855 3.386 3.386 0 00-.427 3.448 2.107 2.107 0 001.595 1.039 5.068 5.068 0 003.71-1.688 165.63 165.63 0 003.581-3.708.774.774 0 000 .204 2.472 2.472 0 001.187 1.65 3.41 3.41 0 002.69.352 7.006 7.006 0 003.116-2.41l2.189-2.503a3.503 3.503 0 00.519 3.708 2.952 2.952 0 002.115.983 8.014 8.014 0 005.046-2.559 116.588 116.588 0 0121.332-15.501 29.679 29.679 0 002.745-1.854 19.619 19.619 0 015.361-2.967 44.05 44.05 0 019.888-1.335c1.595-.093 3.153-.185 4.619-.334a.853.853 0 00.433-1.51.828.828 0 00-.619-.177c-1.447.148-2.968.241-4.526.334a45.21 45.21 0 00-10.295 1.39 22.158 22.158 0 00-5.825 3.19 35.922 35.922 0 01-2.634 1.743 120.016 120.016 0 00-21.648 15.723 6.859 6.859 0 01-3.71 1.947 1.278 1.278 0 01-.909-.426c-1.002-1.094.371-3.227 1.002-4.098l7.086-9.735a.81.81 0 00.165-.605.805.805 0 00-.314-.544.833.833 0 00-1.168 0l-12.021 13.776a5.452 5.452 0 01-2.318 1.855 1.715 1.715 0 01-1.317-.167.827.827 0 01-.297-.26l9.664-14.518a.837.837 0 00-.222-1.168.84.84 0 00-1.169.222 134.294 134.294 0 01-14.84 17.875 3.712 3.712 0 01-2.319 1.186.402.402 0 01-.352-.222c-.204-.315 0-.909.426-1.725a57.003 57.003 0 017.958-10.569l4.137-3.93a.853.853 0 00-1.15-1.243 60.705 60.705 0 00-4.192 3.968l-14.173 13.443a3.484 3.484 0 01-2.133 1.15.463.463 0 01-.389-.186c-.427-.445 0-1.446.612-2.262a120.148 120.148 0 0121.852-23.326.849.849 0 00.093-1.131.854.854 0 00-1.114-.222 40.788 40.788 0 01-11.13 5.451c-1.298.408-1.984.241-2.114 0-.13-.241 0-1.057.909-2.021a59.7 59.7 0 018.403-7.157 89.695 89.695 0 0119.218-10.996c10.889-4.542 21.777-5.71 33.39-6.953l3.617-.408a.822.822 0 00.565-.308.836.836 0 00.177-.619.842.842 0 00-.6-.715.845.845 0 00-.328-.026l-3.71.389c-11.668 1.261-22.668 2.447-33.779 7.083a91.127 91.127 0 00-19.589 11.125 62.61 62.61 0 00-8.644 7.417c-1.336 1.446-1.744 3.022-1.076 4.079.389.594 1.428 1.484 4.044.668a39.521 39.521 0 004.433-1.651 122.177 122.177 0 00-16.008 18.283c-1.28 1.854-1.447 3.356-.501 4.394a2.192 2.192 0 001.595.723l.019.242z" fill="#181C1D"/><path d="M49.343 293.907L22.28 221.501l110.539 2.188 24.783 82.567-108.258-12.349z" fill="#fff"/><path d="M157.601 307.239a.895.895 0 00.705-.334.94.94 0 00.185-.853l-24.783-82.567a.958.958 0 00-.871-.668l-110.54-2.187a.933.933 0 00-.779.389.998.998 0 00-.111.853l27.064 72.314a.945.945 0 00.78.611l108.239 12.442h.111zm-25.488-82.586l24.115 80.584L49.937 293.11l-26.378-70.608 108.554 2.151z" fill="#181C1D"/><path d="M55.242 294.575s-29.995 24.346-19.459 46.67c10.537 22.325 202.195 47.839 202.195 47.839l8.626-29.186S96.256 283.135 55.242 294.575z" fill="#181C1D"/><path d="M237.978 390.011a.947.947 0 00.89-.668l8.626-29.185a.892.892 0 00-.464-1.075c-.371-.204-38.083-19.395-80.34-36.973-56.856-23.641-94.42-33.209-111.634-28.425a.942.942 0 00-.352.185 81.34 81.34 0 00-13.839 15.149c-8.273 11.904-10.276 23.178-5.787 32.634 10.722 22.51 194.942 47.301 202.77 48.339l.13.019zm7.531-29.668l-8.199 27.665c-13.393-1.854-190.601-26.292-200.563-47.189-9.794-20.619 16.695-43.555 18.995-45.428 38.993-10.402 178.526 59.39 189.656 64.99l.111-.038z" fill="#181C1D"/><path d="M256.528 283.394s-148.826 60.15-185.722 76.022l21.444 33.116s137.418-2.688 176.818-37.195c39.4-34.507 36.785-91.95-12.54-71.943z" fill="#181C1D"/><path d="M92.25 393.497c.333 0 34.855-.724 73.735-5.656 52.311-6.656 87.185-17.336 103.676-31.781 20.628-18.06 35.078-49.766 23.726-68.179-3.71-6.119-13.616-14.926-37.249-5.358-1.484.612-149.253 60.354-185.74 76.022a.879.879 0 00-.52.575.963.963 0 00.111.778l21.444 33.172a.93.93 0 00.816.427zM274.8 280.168c7.624 0 13.467 2.93 17.029 8.678 8.755 14.221 1.465 44.074-23.373 65.824-37.49 32.838-166.45 36.731-175.706 36.954l-20.59-31.8c38.101-16.317 183.218-74.984 184.702-75.577a48.695 48.695 0 0117.938-4.079z" fill="#181C1D"/><path d="M48.768 265.001a5.268 5.268 0 01-1.076 2.336l-2.894 4.32a3.14 3.14 0 011.65-2.081 3.137 3.137 0 012.654-.07 5.069 5.069 0 012.653 4.58 14.572 14.572 0 01-1.299 5.396c-2.059 5.34-6.715 13.146-13.449 9.104-4.563-2.744-5.824-12.423-6.473-17.244-1.28-9.494 1.632-21.694 13.838-19.84a23.466 23.466 0 01-5.009 12.812c1.985-1.928 10.017-4.913 9.405.687z" fill="#fff"/><path d="M40.736 290.551a6.376 6.376 0 002.189-.37c4.396-1.502 7.141-7.158 8.384-10.402a15.571 15.571 0 001.354-5.711 5.782 5.782 0 00-3.172-5.322 3.507 3.507 0 00-1.447-.315l.409-.612a6.028 6.028 0 001.224-2.744 3.375 3.375 0 00-1.855-3.709 7.906 7.906 0 00-5.75.427 24.1 24.1 0 003.116-10.161.87.87 0 00-.724-.909 11.728 11.728 0 00-10.518 2.893c-4.359 4.302-5.082 12.052-4.285 17.893.724 5.34 2.022 14.926 6.882 17.856a7.85 7.85 0 004.193 1.186zm7.197-20.396c.299-.004.596.053.872.167a4.212 4.212 0 012.152 3.82 13.488 13.488 0 01-1.225 5.08c-.927 2.374-3.487 8.066-7.42 9.401a5.577 5.577 0 01-2.514.204 5.58 5.58 0 01-2.346-.927c-4.173-2.503-5.435-11.923-6.047-16.447-.76-5.562-.148-12.794 3.71-16.688a9.81 9.81 0 018.292-2.54 22.714 22.714 0 01-4.767 11.552.832.832 0 00.092 1.149.853.853 0 001.169 0c1.243-1.223 5.342-2.966 7.179-2.076.408.185.927.612.797 2.058a5.016 5.016 0 01-.927 1.965l-1.558 2.3a3.296 3.296 0 00-1.484 2.391.852.852 0 00.556.89.83.83 0 00.983-.333l1.15-1.706a2.655 2.655 0 011.336-.26z" fill="#181C1D"/><path d="M90.561 352.556c.117.018.236.018.353 0 3.246-1.261 79.969-30.947 97.257-41.534a.966.966 0 00.064-1.594.948.948 0 00-1.065-.038c-17.141 10.495-96.145 41.071-96.943 41.367a.965.965 0 00-.556 1.243.944.944 0 00.89.556z" fill="#fff"/><path d="M180.046 231.477c-16.914 0-30.626-12.976-30.626-28.982 0-16.005 13.712-28.981 30.626-28.981 16.915 0 30.626 12.976 30.626 28.981 0 16.006-13.711 28.982-30.626 28.982z" fill="#181C1D"/><path d="M180.047 232.385c17.399 0 31.535-13.406 31.535-29.89 0-16.483-14.154-29.908-31.535-29.908-17.382 0-31.535 13.425-31.535 29.908 0 16.484 14.135 29.89 31.535 29.89zm0-57.944c16.379 0 29.68 12.59 29.68 28.054 0 15.465-13.319 28.036-29.68 28.036-16.362 0-29.68-12.571-29.68-28.036 0-15.464 13.3-28.054 29.68-28.054z" fill="#181C1D"/><path d="M196.204 211.915l7.42-4.339v-5.729l-7.42-4.339a575.374 575.374 0 01-7.42-4.339v6.935c1.317.815 2.634 1.613 3.951 2.373 1.317.76 2.615 1.539 3.951 2.373l-3.951 2.188-3.951 2.207v7.009l7.42-4.339zm-9.517 6.174l-8.737-33.227-4.563 2.058 8.774 33.172 4.526-2.003zm-22.909-20.581l-7.42 4.339v5.729l7.42 4.339 7.42 4.339v-7.009l-3.951-2.207-3.952-2.188a90.403 90.403 0 013.952-2.373c1.317-.742 2.615-1.558 3.951-2.373v-6.935l-7.42 4.339z" fill="#fff"/><path d="M243.543 283.135a.93.93 0 00.111-1.855l-44.52-5.395-7.067-35.619 57.041-4.821a.909.909 0 00.686-.39.895.895 0 00.149-.779l-23.448-87.258a.96.96 0 00-1.855.482l23.169 86.202-56.893 4.709a.996.996 0 00-.667.371.954.954 0 00-.162.353.962.962 0 00-.005.389l7.42 37.288a.941.941 0 00.797.741l45.244 5.47v.112z" fill="#181C1D"/></svg>