<svg width="490" height="348" viewBox="0 0 490 348" fill="none" xmlns="http://www.w3.org/2000/svg">
<g clip-path="url(#clip0)">
<rect width="490" height="348" fill="#333745"/>
<rect width="437.338" height="378.739" transform="matrix(0.731788 0.681533 -0.682464 0.730919 395.267 -244.444)" fill="#FFAD05"/>
<path d="M490 86.6602C536.983 86.6602 575.069 48.6218 575.069 1.69922C575.069 -45.2234 536.983 -83.2617 490 -83.2617C443.018 -83.2617 404.931 -45.2234 404.931 1.69922C404.931 48.6218 443.018 86.6602 490 86.6602Z" fill="#333745"/>
<path d="M352.358 95.4961C368.801 95.4961 382.132 82.1827 382.132 65.7598C382.132 49.3368 368.801 36.0234 352.358 36.0234C335.914 36.0234 322.583 49.3368 322.583 65.7598C322.583 82.1827 335.914 95.4961 352.358 95.4961Z" fill="#E95272"/>
<path d="M419.227 91.5321C405.995 145.653 412.448 202.788 438.59 253.307C441.179 258.309 447.337 260.269 452.346 257.683C457.354 255.098 459.316 248.947 456.728 243.945C432.87 197.842 426.987 145.752 439.061 96.3689C440.398 90.8989 437.042 85.3818 431.565 84.0462C426.088 82.7105 420.564 86.0621 419.227 91.5321Z" fill="#E95272"/>
<path d="M120.064 154.275C126.385 195.379 147.146 232.957 179.601 260.364C182.815 263.078 187.623 262.676 190.34 259.467C193.057 256.257 192.655 251.456 189.441 248.742C159.823 223.73 140.895 189.47 135.127 151.965C134.489 147.81 130.599 144.96 126.439 145.598C122.279 146.236 119.425 150.121 120.064 154.275Z" fill="#FFAD05"/>
<path d="M216.224 160.214C223.768 152.679 223.768 140.463 216.224 132.928C208.679 125.393 196.448 125.393 188.903 132.928C181.359 140.463 181.359 152.679 188.903 160.214C196.448 167.748 208.679 167.748 216.224 160.214Z" fill="#E95272"/>
<path d="M249.304 28.088C253.667 23.7305 253.667 16.6655 249.304 12.308C244.941 7.95046 237.867 7.95046 233.504 12.308C229.141 16.6655 229.141 23.7305 233.504 28.088C237.867 32.4455 244.941 32.4455 249.304 28.088Z" fill="#E95272"/>
<path d="M184.652 42.7013C188.263 39.0945 188.263 33.2468 184.652 29.64C181.04 26.0333 175.185 26.0333 171.574 29.64C167.962 33.2468 167.962 39.0945 171.574 42.7013C175.185 46.3081 181.04 46.3081 184.652 42.7013Z" fill="#E95272"/>
<path d="M84.2495 -0.451845C48.943 42.6801 30.0964 97.0096 31.8705 153.848C32.0462 159.476 36.7568 163.897 42.392 163.721C48.0272 163.546 52.453 158.841 52.2773 153.213C50.6582 101.342 67.8405 51.8102 100.056 12.4541C103.625 8.09472 102.979 1.6717 98.6141 -1.89217C94.2492 -5.45604 87.8179 -4.81118 84.2495 -0.451845Z" fill="#E95272"/>
<path d="M71.118 397.617C118.101 397.617 156.187 359.579 156.187 312.656C156.187 265.734 118.101 227.695 71.118 227.695C24.1355 227.695 -13.9514 265.734 -13.9514 312.656C-13.9514 359.579 24.1355 397.617 71.118 397.617Z" fill="#FFAD05"/>
<path d="M455.462 310.617C465.704 310.617 474.007 302.325 474.007 292.096C474.007 281.867 465.704 273.574 455.462 273.574C445.22 273.574 436.917 281.867 436.917 292.096C436.917 302.325 445.22 310.617 455.462 310.617Z" fill="#333745"/>
<path d="M97.9661 325.526C153.315 332.459 209.408 319.516 256.666 287.796C261.346 284.655 262.59 278.321 259.445 273.647C256.3 268.974 249.957 267.732 245.278 270.872C202.15 299.82 151.01 311.62 100.507 305.294C94.9129 304.593 89.8092 308.554 89.1076 314.141C88.4059 319.728 92.372 324.825 97.9661 325.526Z" fill="#E95272"/>
<path d="M285.307 39.1008C289.487 76.7296 306.937 111.701 335.412 137.867C338.231 140.458 342.62 140.276 345.214 137.46C347.808 134.644 347.626 130.261 344.806 127.67C318.82 103.791 302.911 71.9076 299.097 37.5728C298.675 33.7697 295.245 31.0287 291.437 31.4506C287.629 31.8726 284.885 35.2977 285.307 39.1008Z" fill="#333745"/>
</g>
<defs>
<clipPath id="clip0">
<rect width="490" height="348" fill="white"/>
</clipPath>
</defs>
</svg>
